#!OML:ASF F:\VICON\USERDATA\INSTALL\Justin_Nancy\Justin_Nancy.ASF
:FULLY-SPECIFIED
:DEGREES
221
root 1.39062 17.5692 2.59453 -0.996302 -0.939254 0.795259
lowerback 3.98169 0.782285 -1.62661
upperback -0.69219 0.987068 0.879729
thorax -2.98808 0.527501 1.75335
lowerneck -16.5281 -3.38258 -10.0144
upperneck 25.6963 -3.36668 5.17232
head 11.3619 -1.86785 3.10451
rclavicle -1.72694e-015 3.57812e-015
rhumerus -31.7056 -18.7305 -77.7306
rradius 28.3185
rwrist 9.07478
rhand -19.581 14.8466
rfingers 7.12502
rthumb 6.7443 -15.026
lclavicle -1.72694e-015 3.57812e-015
lhumerus -33.1739 16.5214 81.7475
lradius 22.0323
lwrist -12.4854
lhand -12.4127 28.245
lfingers 7.12502
lthumb 13.6593 57.7768
rfemur -3.97116 -1.15531 21.4987
rtibia 50.1705
rfoot -10.1731 -7.03326
rtoes -12.29
lfemur -17.0203 2.36794 -23.6532
ltibia 23.7161
lfoot -3.50933 -5.53596
ltoes 6.42528
222
root 1.39814 17.58 2.67916 -1.02436 -0.891773 1.17188
lowerback 4.08125 0.774773 -2.08901
upperback -0.710166 0.950581 0.839477
thorax -3.06847 0.518028 1.97281
lowerneck -16.4003 -3.37891 -10.0235
upperneck 25.5771 -3.34322 5.07905
head 11.2884 -1.86912 3.073
rclavicle 2.81405e-015 2.78299e-015
rhumerus -31.917 -19.0342 -77.4066
rradius 27.7677
rwrist 9.57465
rhand -19.5191 14.2851
rfingers 7.12502
rthumb 6.80405 -15.5856
lclavicle 2.81405e-015 2.78299e-015
lhumerus -32.6511 16.1847 82.009
lradius 22.2359
lwrist -12.9749
lhand -9.33305 31.7913
lfingers 7.12502
lthumb 16.6258 61.0992
rfemur -4.74028 -1.53801 20.8768
rtibia 51.1326
rfoot -10.3003 -7.75285
rtoes -10.9081
lfemur -16.5314 2.34467 -24.1338
ltibia 23.5025
lfoot -3.56103 -5.49391
ltoes 5.6296
223
root 1.40617 17.5864 2.7678 -1.04651 -0.747693 1.62695
lowerback 4.08986 0.749391 -2.54794
upperback -0.727149 0.88846 0.699309
thorax -3.09303 0.494436 2.09019
lowerneck -16.1178 -3.33531 -9.89698
upperneck 25.3526 -3.32645 5.02073
head 11.142 -1.85592 3.02973
rclavicle -5.87036e-016 6.36111e-015
rhumerus -32.1753 -19.4185 -77.149
rradius 27.1575
rwrist 10.223
rhand -19.7448 14.1917
rfingers 7.12502
rthumb 6.5862 -15.6859
lclavicle -5.87036e-016 6.36111e-015
lhumerus -32.0306 16.0039 82.0398
lradius 22.3487
lwrist -14.1868
lhand -10.4378 28.9701
lfingers 7.12502
lthumb 15.562 58.364
rfemur -5.38778 -2.06364 20.1223
rtibia 51.9975
rfoot -10.9581 -8.29378
rtoes -8.54913
lfemur -16.0173 2.06447 -24.6888
ltibia 23.2543
lfoot -3.75347 -5.33267
ltoes 5.15125
224
root 1.41209 17.5935 2.83833 -1.03345 -0.677015 1.68842
lowerback 4.33939 0.680877 -2.68894
upperback -0.806548 0.783658 0.74286
thorax -3.31258 0.449194 2.21894
lowerneck -15.9878 -3.22992 -9.97947
upperneck 25.2233 -3.18079 5.08168
head 11.0573 -1.78967 3.08581
rclavicle 6.11884e-016 -3.97569e-016
rhumerus -32.4309 -19.6925 -76.8455
rradius 26.6032
rwrist 11.2747
rhand -20.0436 14.3274
rfingers 7.12502
rthumb 6.29775 -15.559
lclavicle 6.11884e-016 -3.97569e-016
lhumerus -31.6996 15.4111 82.4364
lradius 22.7906
lwrist -13.6207
lhand -11.9405 28.5228
lfingers 7.12502
lthumb 14.1144 58.0234
rfemur -6.1778 -2.39937 19.9135
rtibia 52.7353
rfoot -11.7413 -8.95397
rtoes -6.82092
lfemur -15.6895 1.71698 -24.776
ltibia 23.0806
lfoot -3.98901 -4.96211
ltoes 4.70732
225
root 1.41592 17.6007 2.90742 -0.978748 -0.519172 1.67087
lowerback 4.55884 0.635196 -2.73126
upperback -0.892872 0.715152 0.78832
thorax -3.52281 0.42045 2.29264
lowerneck -15.9803 -3.28058 -10.0309
upperneck 25.2356 -3.23694 5.07158
head 11.0668 -1.82176 3.08279
rclavicle 2.54072e-015 3.57812e-015
rhumerus -32.7837 -20.2144 -76.4006
rradius 26.0627
rwrist 12.2289
rhand -20.1849 14.3355
rfingers 7.12502
rthumb 6.16133 -15.5549
lclavicle 2.54072e-015 3.57812e-015
lhumerus -31.3107 14.9648 82.7406
lradius 23.1377
lwrist -13.5082
lhand -11.2361 31.0472
lfingers 7.12502
lthumb 14.7931 60.4992
rfemur -7.06108 -2.82849 19.8278
rtibia 53.3723
rfoot -12.1994 -9.77171
rtoes -7.11584
lfemur -15.4665 1.5261 -24.7946
ltibia 23.0514
lfoot -4.29945 -4.84611
ltoes 4.2763
